<svg width="97" height="22" viewBox="0 0 97 22" fill="none" xmlns="http://www.w3.org/2000/svg">
<path opacity="0.7" d="M35.7402 16.0126C35.546 16.0126 35.3905 15.9689 35.274 15.8815C35.1574 15.794 35.0894 15.6775 35.07 15.5318C35.0506 15.3861 35.0797 15.221 35.1574 15.0364L39.1059 6.17785C39.203 5.94473 39.3244 5.7796 39.4701 5.68247C39.6255 5.58534 39.7955 5.53677 39.9801 5.53677C40.1549 5.53677 40.3152 5.58534 40.4609 5.68247C40.6163 5.7796 40.7426 5.94473 40.8397 6.17785L44.7882 15.0364C44.8756 15.221 44.9096 15.3909 44.8902 15.5463C44.8707 15.692 44.8076 15.8086 44.7008 15.896C44.5939 15.9737 44.4434 16.0126 44.2491 16.0126C44.0354 16.0126 43.8654 15.9592 43.7391 15.8523C43.6129 15.7455 43.5012 15.5803 43.404 15.3569L42.3841 12.9966L43.0689 13.4046H36.8621L37.5323 12.9966L36.527 15.3569C36.4299 15.5901 36.323 15.76 36.2065 15.8669C36.0899 15.964 35.9345 16.0126 35.7402 16.0126ZM39.9509 7.31431L37.7509 12.5304L37.3866 12.1807H42.5298L42.1947 12.5304L39.9801 7.31431H39.9509ZM47.095 16.0126C46.8619 16.0126 46.6822 15.9495 46.5559 15.8232C46.4297 15.6872 46.3665 15.5026 46.3665 15.2695V9.44153C46.3665 9.19869 46.4297 9.01414 46.5559 8.88787C46.6822 8.76159 46.857 8.69846 47.0804 8.69846C47.3136 8.69846 47.4884 8.76159 47.605 8.88787C47.7312 9.01414 47.7944 9.19869 47.7944 9.44153V10.578L47.6341 10.3157C47.8478 9.77178 48.1829 9.36382 48.6394 9.09185C49.096 8.81016 49.6205 8.66932 50.213 8.66932C50.7764 8.66932 51.2426 8.77616 51.6117 8.98986C51.9905 9.19384 52.2722 9.50952 52.4568 9.93691C52.6413 10.3546 52.7336 10.884 52.7336 11.525V15.2695C52.7336 15.5026 52.6705 15.6872 52.5442 15.8232C52.4179 15.9495 52.2382 16.0126 52.0051 16.0126C51.7623 16.0126 51.5777 15.9495 51.4514 15.8232C51.3252 15.6872 51.262 15.5026 51.262 15.2695V11.6125C51.262 11.0005 51.1406 10.5537 50.8978 10.272C50.6647 9.99033 50.2956 9.84949 49.7905 9.84949C49.198 9.84949 48.722 10.034 48.3626 10.4031C48.0129 10.7723 47.8381 11.2676 47.8381 11.8893V15.2695C47.8381 15.7649 47.5904 16.0126 47.095 16.0126ZM57.0343 16.0417C56.5389 16.0417 56.0921 15.9446 55.6938 15.7503C55.3053 15.5561 54.9993 15.2938 54.7759 14.9635C54.5525 14.6333 54.4408 14.2593 54.4408 13.8417C54.4408 13.3171 54.5719 12.9043 54.8342 12.6032C55.1062 12.2924 55.5481 12.0738 56.1601 11.9476C56.7817 11.8116 57.617 11.7436 58.6661 11.7436H59.3509V12.6469H58.6807C57.9813 12.6469 57.4276 12.6809 57.0197 12.7489C56.6117 12.8169 56.3203 12.9335 56.1455 13.0986C55.9804 13.254 55.8978 13.4726 55.8978 13.7542C55.8978 14.1233 56.0241 14.4245 56.2766 14.6576C56.5292 14.881 56.8788 14.9927 57.3256 14.9927C57.685 14.9927 58.0007 14.9101 58.2727 14.745C58.5447 14.5702 58.7584 14.337 58.9138 14.0456C59.0789 13.7542 59.1615 13.4191 59.1615 13.0403V11.3648C59.1615 10.8111 59.0449 10.4129 58.8118 10.17C58.5787 9.92719 58.195 9.80578 57.6608 9.80578C57.3499 9.80578 57.0245 9.84463 56.6846 9.92234C56.3543 10 56.0095 10.1312 55.6501 10.3157C55.485 10.3934 55.3441 10.4177 55.2276 10.3886C55.111 10.3594 55.0187 10.2963 54.9507 10.1992C54.8827 10.0923 54.8439 9.98062 54.8342 9.86406C54.8342 9.73778 54.8633 9.61637 54.9216 9.49981C54.9896 9.38325 55.1013 9.29583 55.2567 9.23755C55.6841 9.03357 56.1066 8.88787 56.5243 8.80045C56.942 8.71303 57.3354 8.66932 57.7045 8.66932C58.3553 8.66932 58.8895 8.77131 59.3072 8.97529C59.7346 9.17927 60.0502 9.49009 60.2542 9.90777C60.4582 10.3254 60.5602 10.8645 60.5602 11.525V15.2695C60.5602 15.5026 60.5019 15.6872 60.3853 15.8232C60.2688 15.9495 60.0988 16.0126 59.8754 16.0126C59.6617 16.0126 59.4917 15.9495 59.3654 15.8232C59.2392 15.6872 59.176 15.5026 59.176 15.2695V14.3225H59.3072C59.2295 14.6819 59.0838 14.9927 58.8701 15.2549C58.6661 15.5075 58.4087 15.7018 58.0979 15.8377C57.787 15.9737 57.4325 16.0417 57.0343 16.0417ZM64.8745 16.0417C64.1169 16.0417 63.5438 15.8232 63.1552 15.3861C62.7764 14.9393 62.587 14.2982 62.587 13.4628V6.27984C62.587 6.03701 62.6501 5.85245 62.7764 5.72618C62.9027 5.59991 63.0824 5.53677 63.3155 5.53677C63.5486 5.53677 63.7283 5.59991 63.8546 5.72618C63.9906 5.85245 64.0586 6.03701 64.0586 6.27984V13.3754C64.0586 13.8611 64.1557 14.2253 64.35 14.4682C64.554 14.7013 64.8454 14.8178 65.2242 14.8178C65.3116 14.8178 65.3893 14.8178 65.4573 14.8178C65.5253 14.8081 65.5933 14.7984 65.6613 14.7887C65.7778 14.779 65.8604 14.813 65.909 14.8907C65.9575 14.9587 65.9818 15.1044 65.9818 15.3278C65.9818 15.5318 65.9381 15.692 65.8507 15.8086C65.7633 15.9155 65.6224 15.9834 65.4282 16.0126C65.3407 16.0223 65.2485 16.0272 65.1513 16.0272C65.0542 16.0369 64.9619 16.0417 64.8745 16.0417ZM68.5453 18.6352C68.3705 18.6352 68.2248 18.5866 68.1082 18.4895C68.0014 18.4021 67.9383 18.2806 67.9188 18.1252C67.9091 17.9795 67.9383 17.8193 68.0062 17.6444L68.997 15.4152V16.0417L66.2724 9.70379C66.2044 9.52895 66.1801 9.36382 66.1996 9.20841C66.219 9.05299 66.2918 8.93158 66.4181 8.84416C66.5444 8.74702 66.7144 8.69846 66.9281 8.69846C67.1126 8.69846 67.2583 8.74217 67.3652 8.82959C67.472 8.91701 67.5691 9.06756 67.6566 9.28126L69.8566 14.7159H69.4487L71.6779 9.28126C71.7653 9.05785 71.8673 8.90729 71.9838 8.82959C72.1004 8.74217 72.2607 8.69846 72.4647 8.69846C72.6395 8.69846 72.7755 8.74702 72.8726 8.84416C72.9795 8.93158 73.0426 9.05299 73.062 9.20841C73.0912 9.35411 73.0669 9.51438 72.9892 9.68922L69.3467 18.067C69.2495 18.2904 69.1378 18.4409 69.0116 18.5186C68.895 18.5963 68.7396 18.6352 68.5453 18.6352ZM77.6406 16.0417C77.0578 16.0417 76.5673 15.9397 76.1691 15.7358C75.7708 15.5318 75.4746 15.2307 75.2803 14.8324C75.086 14.4342 74.9889 13.9485 74.9889 13.3754V9.93691H74.1147C73.9204 9.93691 73.7699 9.88834 73.663 9.79121C73.5562 9.68436 73.5028 9.54352 73.5028 9.36868C73.5028 9.18412 73.5562 9.04328 73.663 8.94615C73.7699 8.84901 73.9204 8.80045 74.1147 8.80045H74.9889V7.29974C74.9889 7.0569 75.052 6.87235 75.1783 6.74608C75.3143 6.61981 75.4989 6.55667 75.732 6.55667C75.9651 6.55667 76.1448 6.61981 76.2711 6.74608C76.3973 6.87235 76.4605 7.0569 76.4605 7.29974V8.80045H78.1652C78.3594 8.80045 78.51 8.84901 78.6168 8.94615C78.7237 9.04328 78.7771 9.18412 78.7771 9.36868C78.7771 9.54352 78.7237 9.68436 78.6168 9.79121C78.51 9.88834 78.3594 9.93691 78.1652 9.93691H76.4605V13.2589C76.4605 13.7737 76.5673 14.1622 76.781 14.4245C77.0044 14.6867 77.3638 14.8178 77.8592 14.8178C78.034 14.8178 78.1846 14.8033 78.3109 14.7741C78.4469 14.7353 78.5586 14.711 78.646 14.7013C78.7528 14.7013 78.8402 14.7401 78.9082 14.8178C78.9762 14.8858 79.0102 15.0218 79.0102 15.2258C79.0102 15.3715 78.9811 15.5075 78.9228 15.6338C78.8742 15.76 78.782 15.8426 78.646 15.8815C78.5294 15.9203 78.3691 15.9543 78.1652 15.9834C77.9709 16.0223 77.7961 16.0417 77.6406 16.0417ZM80.7881 15.998C80.555 15.998 80.3753 15.93 80.249 15.794C80.1227 15.6483 80.0596 15.4492 80.0596 15.1967V9.51438C80.0596 9.26183 80.1227 9.06756 80.249 8.93158C80.3753 8.79559 80.555 8.7276 80.7881 8.7276C81.0212 8.7276 81.2009 8.79559 81.3272 8.93158C81.4632 9.06756 81.5312 9.26183 81.5312 9.51438V15.1967C81.5312 15.4492 81.468 15.6483 81.3418 15.794C81.2155 15.93 81.0309 15.998 80.7881 15.998ZM80.7881 7.21232C80.4967 7.21232 80.2684 7.13947 80.1033 6.99377C79.9479 6.84807 79.8702 6.64409 79.8702 6.38183C79.8702 6.10986 79.9479 5.90588 80.1033 5.76989C80.2684 5.62419 80.4967 5.55134 80.7881 5.55134C81.0795 5.55134 81.3029 5.62419 81.4583 5.76989C81.6234 5.90588 81.706 6.10986 81.706 6.38183C81.706 6.64409 81.6234 6.84807 81.4583 6.99377C81.3029 7.13947 81.0795 7.21232 80.7881 7.21232ZM86.735 16.0417C86.0065 16.0417 85.3752 15.8912 84.8409 15.5901C84.3164 15.2792 83.9085 14.847 83.6171 14.2933C83.3257 13.73 83.18 13.0695 83.18 12.3118C83.18 11.7484 83.2625 11.2433 83.4277 10.7965C83.5928 10.34 83.8259 9.95633 84.127 9.64551C84.4378 9.33468 84.8118 9.0967 85.2489 8.93158C85.6957 8.75674 86.1911 8.66932 86.735 8.66932C87.075 8.66932 87.4295 8.72274 87.7987 8.82959C88.1775 8.92672 88.5272 9.09185 88.8477 9.32497C88.974 9.40267 89.0517 9.49981 89.0808 9.61637C89.1197 9.72321 89.1245 9.83492 89.0954 9.95148C89.076 10.068 89.0225 10.17 88.9351 10.2574C88.8574 10.3352 88.7603 10.3837 88.6437 10.4031C88.5272 10.4129 88.4009 10.3789 88.2649 10.3012C88.0318 10.136 87.7938 10.0195 87.551 9.95148C87.3081 9.87377 87.075 9.83492 86.8516 9.83492C86.5019 9.83492 86.1911 9.8932 85.9191 10.0098C85.6569 10.1166 85.4335 10.2769 85.2489 10.4906C85.0644 10.6945 84.9235 10.9519 84.8264 11.2628C84.739 11.5736 84.6952 11.9281 84.6952 12.3264C84.6952 13.1229 84.8798 13.7494 85.2489 14.2059C85.6277 14.6527 86.162 14.8761 86.8516 14.8761C87.075 14.8761 87.3081 14.8421 87.551 14.7741C87.7938 14.7061 88.0318 14.5896 88.2649 14.4245C88.4009 14.3468 88.5272 14.3176 88.6437 14.337C88.7603 14.3565 88.8526 14.4099 88.9205 14.4973C88.9983 14.575 89.0468 14.6722 89.0662 14.7887C89.0954 14.8956 89.0905 15.0073 89.0517 15.1238C89.0128 15.2404 88.9303 15.3375 88.804 15.4152C88.4932 15.6386 88.1532 15.7989 87.7841 15.896C87.4247 15.9932 87.075 16.0417 86.735 16.0417ZM92.8952 16.0417C92.4678 16.0417 92.0258 15.9932 91.5693 15.896C91.1225 15.7989 90.7097 15.6338 90.3309 15.4006C90.2046 15.3132 90.1172 15.2161 90.0686 15.1092C90.02 15.0024 90.0006 14.8956 90.0103 14.7887C90.0298 14.6722 90.0735 14.575 90.1415 14.4973C90.2192 14.4099 90.3114 14.3565 90.4183 14.337C90.5349 14.3176 90.6563 14.3419 90.7825 14.4099C91.1614 14.6236 91.5256 14.7741 91.8753 14.8616C92.225 14.9393 92.5698 14.9781 92.9098 14.9781C93.4246 14.9781 93.8131 14.8858 94.0754 14.7013C94.3376 14.5167 94.4687 14.269 94.4687 13.9582C94.4687 13.7057 94.3813 13.5114 94.2065 13.3754C94.0316 13.2297 93.7694 13.118 93.4197 13.0403L92.0356 12.7635C91.4333 12.6372 90.9768 12.4138 90.666 12.0933C90.3552 11.7727 90.1997 11.3648 90.1997 10.8694C90.1997 10.4226 90.3212 10.034 90.564 9.70379C90.8068 9.37353 91.1468 9.12099 91.5839 8.94615C92.021 8.76159 92.5261 8.66932 93.0992 8.66932C93.5266 8.66932 93.9297 8.72274 94.3085 8.82959C94.6873 8.93643 95.037 9.0967 95.3575 9.3104C95.4838 9.37839 95.5664 9.47067 95.6052 9.58723C95.6441 9.69407 95.6489 9.80092 95.6198 9.90777C95.6004 10.0146 95.5518 10.1117 95.4741 10.1992C95.3964 10.2769 95.2992 10.3254 95.1827 10.3449C95.0758 10.3546 94.9544 10.3254 94.8184 10.2574C94.527 10.0729 94.2356 9.94176 93.9442 9.86406C93.6625 9.78635 93.3809 9.7475 93.0992 9.7475C92.5844 9.7475 92.1958 9.84463 91.9336 10.0389C91.681 10.2234 91.5548 10.476 91.5548 10.7965C91.5548 11.0394 91.6325 11.2385 91.7879 11.3939C91.9433 11.5493 92.1861 11.661 92.5164 11.729L93.9005 12.0058C94.5319 12.1321 95.0078 12.3458 95.3284 12.6469C95.6586 12.948 95.8238 13.356 95.8238 13.8708C95.8238 14.541 95.5566 15.0704 95.0224 15.4589C94.4882 15.8475 93.7791 16.0417 92.8952 16.0417Z" fill="black"/>
<g opacity="0.8">
<g clip-path="url(#clip0_317_948)">
<path d="M19 3H5C3.9 3 3 3.9 3 5V19C3 20.1 3.9 21 5 21H19C20.1 21 21 20.1 21 19V5C21 3.9 20.1 3 19 3ZM9 17H7V10H9V17ZM13 17H11V7H13V17ZM17 17H15V13H17V17Z" fill="black"/>
</g>
</g>
<defs>
<clipPath id="clip0_317_948">
<rect width="21.855" height="21.855" fill="white"/>
</clipPath>
</defs>
</svg>
