<svg width="91" height="22" viewBox="0 0 91 22" fill="none" xmlns="http://www.w3.org/2000/svg">
<path opacity="0.7" d="M39.9509 16.0417C39.2612 16.0417 38.6542 15.9543 38.1296 15.7795C37.6051 15.5949 37.1632 15.3229 36.8038 14.9635C36.4541 14.6041 36.187 14.1573 36.0024 13.6231C35.8179 13.0889 35.7256 12.4721 35.7256 11.7727V6.29439C35.7256 6.04185 35.7887 5.85244 35.915 5.72616C36.051 5.59989 36.2404 5.53676 36.4832 5.53676C36.7261 5.53676 36.9106 5.59989 37.0369 5.72616C37.1729 5.85244 37.2409 6.04185 37.2409 6.29439V11.7436C37.2409 12.744 37.4691 13.492 37.9257 13.9873C38.3919 14.4827 39.067 14.7304 39.9509 14.7304C40.8445 14.7304 41.5196 14.4827 41.9761 13.9873C42.4326 13.492 42.6609 12.744 42.6609 11.7436V6.29439C42.6609 6.04185 42.724 5.85244 42.8503 5.72616C42.9863 5.59989 43.1708 5.53676 43.404 5.53676C43.6468 5.53676 43.8314 5.59989 43.9576 5.72616C44.0839 5.85244 44.147 6.04185 44.147 6.29439V11.7727C44.147 12.7052 43.9868 13.492 43.6662 14.133C43.3554 14.7644 42.8892 15.2404 42.2675 15.5609C41.6459 15.8814 40.8736 16.0417 39.9509 16.0417ZM47.0523 18.6352C46.8192 18.6352 46.6395 18.572 46.5132 18.4458C46.3869 18.3195 46.3238 18.1349 46.3238 17.8921V9.44151C46.3238 9.19868 46.3869 9.01412 46.5132 8.88785C46.6395 8.76158 46.8143 8.69844 47.0377 8.69844C47.2708 8.69844 47.4505 8.76158 47.5768 8.88785C47.7031 9.01412 47.7662 9.19868 47.7662 9.44151V10.7091L47.6059 10.4031C47.7613 9.87861 48.0673 9.46094 48.5238 9.15011C48.9804 8.82957 49.5195 8.6693 50.1411 8.6693C50.7725 8.6693 51.3213 8.81986 51.7875 9.12097C52.2635 9.42208 52.6277 9.84461 52.8803 10.3886C53.1425 10.9325 53.2737 11.5882 53.2737 12.3555C53.2737 13.1034 53.1425 13.7591 52.8803 14.3225C52.6277 14.8761 52.2683 15.3035 51.8021 15.6046C51.3358 15.896 50.7822 16.0417 50.1411 16.0417C49.5292 16.0417 48.9949 15.8863 48.5384 15.5755C48.0819 15.2646 47.7759 14.8518 47.6205 14.337H47.7953V17.8921C47.7953 18.1349 47.7273 18.3195 47.5914 18.4458C47.4651 18.572 47.2854 18.6352 47.0523 18.6352ZM49.7769 14.9053C50.1848 14.9053 50.5394 14.8081 50.8405 14.6139C51.1416 14.4196 51.3747 14.133 51.5398 13.7542C51.705 13.3754 51.7875 12.9092 51.7875 12.3555C51.7875 11.5202 51.603 10.8888 51.2339 10.4614C50.8745 10.034 50.3888 9.82033 49.7769 9.82033C49.3786 9.82033 49.0241 9.91746 48.7132 10.1117C48.4121 10.2963 48.179 10.578 48.0139 10.9568C47.8488 11.3356 47.7662 11.8018 47.7662 12.3555C47.7662 13.1811 47.9508 13.8125 48.3199 14.2496C48.689 14.6867 49.1746 14.9053 49.7769 14.9053ZM57.642 16.0417C57.0204 16.0417 56.4716 15.896 55.9956 15.6046C55.5294 15.3035 55.1651 14.8761 54.9029 14.3225C54.6406 13.7591 54.5095 13.1034 54.5095 12.3555C54.5095 11.5882 54.6406 10.9325 54.9029 10.3886C55.1651 9.84461 55.5294 9.42208 55.9956 9.12097C56.4716 8.81986 57.0204 8.6693 57.642 8.6693C58.2637 8.6693 58.7979 8.82471 59.2447 9.13554C59.7013 9.43665 60.0072 9.84461 60.1626 10.3594H60.0024V6.27982C60.0024 6.03699 60.0655 5.85244 60.1918 5.72616C60.3181 5.59989 60.4977 5.53676 60.7309 5.53676C60.964 5.53676 61.1437 5.59989 61.27 5.72616C61.4059 5.85244 61.4739 6.03699 61.4739 6.27982V15.2695C61.4739 15.5026 61.4108 15.6872 61.2845 15.8232C61.1583 15.9494 60.9786 16.0126 60.7454 16.0126C60.5123 16.0126 60.3326 15.9494 60.2063 15.8232C60.0801 15.6872 60.0169 15.5026 60.0169 15.2695V13.9873L60.1772 14.3079C60.0218 14.8324 59.7158 15.2549 59.2593 15.5755C58.8125 15.8863 58.2734 16.0417 57.642 16.0417ZM58.0209 14.9053C58.4191 14.9053 58.7688 14.8081 59.0699 14.6139C59.371 14.4196 59.6041 14.133 59.7692 13.7542C59.9441 13.3754 60.0315 12.9092 60.0315 12.3555C60.0315 11.5202 59.847 10.8888 59.4778 10.4614C59.1087 10.034 58.6231 9.82033 58.0209 9.82033C57.6129 9.82033 57.2584 9.91746 56.9572 10.1117C56.6561 10.2963 56.4182 10.578 56.2433 10.9568C56.0782 11.3356 55.9956 11.8018 55.9956 12.3555C55.9956 13.1811 56.1802 13.8125 56.5493 14.2496C56.9184 14.6867 57.4089 14.9053 58.0209 14.9053ZM65.8132 16.0417C65.3178 16.0417 64.871 15.9446 64.4727 15.7503C64.0842 15.556 63.7782 15.2938 63.5548 14.9635C63.3314 14.6333 63.2197 14.2593 63.2197 13.8416C63.2197 13.3171 63.3508 12.9043 63.6131 12.6032C63.8851 12.2924 64.327 12.0738 64.939 11.9475C65.5606 11.8116 66.396 11.7436 67.445 11.7436H68.1298V12.6469H67.4596C66.7602 12.6469 66.2066 12.6809 65.7986 12.7489C65.3906 12.8169 65.0992 12.9335 64.9244 13.0986C64.7593 13.254 64.6767 13.4725 64.6767 13.7542C64.6767 14.1233 64.803 14.4244 65.0555 14.6576C65.3081 14.881 65.6578 14.9927 66.1046 14.9927C66.464 14.9927 66.7796 14.9101 67.0516 14.745C67.3236 14.5701 67.5373 14.337 67.6927 14.0456C67.8578 13.7542 67.9404 13.4191 67.9404 13.0403V11.3647C67.9404 10.8111 67.8238 10.4128 67.5907 10.17C67.3576 9.92718 66.9739 9.80576 66.4397 9.80576C66.1289 9.80576 65.8035 9.84461 65.4635 9.92232C65.1332 10 64.7884 10.1312 64.429 10.3157C64.2639 10.3934 64.1231 10.4177 64.0065 10.3886C63.8899 10.3594 63.7977 10.2963 63.7297 10.1991C63.6617 10.0923 63.6228 9.9806 63.6131 9.86404C63.6131 9.73777 63.6422 9.61635 63.7005 9.49979C63.7685 9.38323 63.8802 9.29581 64.0356 9.23753C64.463 9.03355 64.8856 8.88785 65.3032 8.80043C65.7209 8.71301 66.1143 8.6693 66.4834 8.6693C67.1342 8.6693 67.6684 8.77129 68.0861 8.97527C68.5135 9.17925 68.8292 9.49008 69.0331 9.90775C69.2371 10.3254 69.3391 10.8645 69.3391 11.525V15.2695C69.3391 15.5026 69.2808 15.6872 69.1643 15.8232C69.0477 15.9494 68.8777 16.0126 68.6543 16.0126C68.4406 16.0126 68.2706 15.9494 68.1444 15.8232C68.0181 15.6872 67.955 15.5026 67.955 15.2695V14.3225H68.0861C68.0084 14.6818 67.8627 14.9927 67.649 15.2549C67.445 15.5075 67.1876 15.7017 66.8768 15.8377C66.566 15.9737 66.2114 16.0417 65.8132 16.0417ZM74.3965 16.0417C73.8137 16.0417 73.3232 15.9397 72.9249 15.7357C72.5267 15.5318 72.2304 15.2307 72.0361 14.8324C71.8419 14.4342 71.7447 13.9485 71.7447 13.3754V9.93689H70.8705C70.6763 9.93689 70.5257 9.88832 70.4189 9.79119C70.312 9.68434 70.2586 9.5435 70.2586 9.36866C70.2586 9.18411 70.312 9.04326 70.4189 8.94613C70.5257 8.849 70.6763 8.80043 70.8705 8.80043H71.7447V7.29972C71.7447 7.05689 71.8079 6.87234 71.9342 6.74606C72.0701 6.61979 72.2547 6.55665 72.4878 6.55665C72.7209 6.55665 72.9006 6.61979 73.0269 6.74606C73.1532 6.87234 73.2163 7.05689 73.2163 7.29972V8.80043H74.921C75.1153 8.80043 75.2658 8.849 75.3727 8.94613C75.4795 9.04326 75.5329 9.18411 75.5329 9.36866C75.5329 9.5435 75.4795 9.68434 75.3727 9.79119C75.2658 9.88832 75.1153 9.93689 74.921 9.93689H73.2163V13.2588C73.2163 13.7737 73.3232 14.1622 73.5369 14.4244C73.7603 14.6867 74.1197 14.8178 74.615 14.8178C74.7899 14.8178 74.9404 14.8033 75.0667 14.7741C75.2027 14.7353 75.3144 14.711 75.4018 14.7013C75.5087 14.7013 75.5961 14.7401 75.6641 14.8178C75.7321 14.8858 75.7661 15.0218 75.7661 15.2258C75.7661 15.3715 75.7369 15.5075 75.6786 15.6338C75.6301 15.76 75.5378 15.8426 75.4018 15.8814C75.2853 15.9203 75.125 15.9543 74.921 15.9834C74.7267 16.0223 74.5519 16.0417 74.3965 16.0417ZM79.9528 16.0417C79.1757 16.0417 78.5055 15.896 77.9421 15.6046C77.3885 15.3035 76.9562 14.881 76.6454 14.337C76.3443 13.7834 76.1937 13.1277 76.1937 12.3701C76.1937 11.6319 76.3443 10.9859 76.6454 10.4323C76.9465 9.87861 77.3593 9.44637 77.8838 9.13554C78.4084 8.82471 79.0057 8.6693 79.6759 8.6693C80.1713 8.6693 80.6133 8.75186 81.0018 8.91699C81.3903 9.0724 81.7206 9.30552 81.9926 9.61635C82.2743 9.91746 82.4831 10.2866 82.6191 10.7237C82.7648 11.1608 82.8376 11.6513 82.8376 12.1952C82.8376 12.3604 82.7891 12.4866 82.6919 12.5741C82.5948 12.6518 82.4491 12.6906 82.2548 12.6906H77.3593V11.7873H81.8469L81.5992 11.9913C81.5992 11.5056 81.5263 11.0928 81.3806 10.7528C81.2446 10.4128 81.0358 10.1554 80.7541 9.9806C80.4821 9.79605 80.1422 9.70377 79.7342 9.70377C79.2777 9.70377 78.8892 9.81062 78.5686 10.0243C78.2578 10.238 78.0198 10.5343 77.8547 10.9131C77.6896 11.2919 77.607 11.7339 77.607 12.2389V12.3264C77.607 13.1811 77.8061 13.8271 78.2044 14.2642C78.6123 14.6916 79.2 14.9053 79.9673 14.9053C80.2587 14.9053 80.5647 14.8664 80.8852 14.7887C81.2155 14.711 81.5263 14.5799 81.8177 14.3953C81.9829 14.2982 82.1286 14.2545 82.2548 14.2642C82.3908 14.2739 82.4977 14.3176 82.5754 14.3953C82.6628 14.473 82.7162 14.5701 82.7356 14.6867C82.7551 14.8033 82.7356 14.9247 82.6774 15.051C82.6191 15.1675 82.5171 15.2744 82.3714 15.3715C82.0411 15.5949 81.6575 15.7649 81.2204 15.8814C80.7833 15.9883 80.3607 16.0417 79.9528 16.0417ZM86.9334 16.0417C86.506 16.0417 86.064 15.9931 85.6075 15.896C85.1607 15.7989 84.7479 15.6338 84.3691 15.4006C84.2428 15.3132 84.1554 15.2161 84.1068 15.1092C84.0582 15.0024 84.0388 14.8955 84.0485 14.7887C84.068 14.6721 84.1117 14.575 84.1797 14.4973C84.2574 14.4099 84.3496 14.3565 84.4565 14.337C84.5731 14.3176 84.6945 14.3419 84.8207 14.4099C85.1996 14.6236 85.5638 14.7741 85.9135 14.8615C86.2632 14.9393 86.608 14.9781 86.948 14.9781C87.4628 14.9781 87.8513 14.8858 88.1136 14.7013C88.3758 14.5167 88.5069 14.269 88.5069 13.9582C88.5069 13.7057 88.4195 13.5114 88.2447 13.3754C88.0698 13.2297 87.8076 13.118 87.4579 13.0403L86.0738 12.7635C85.4715 12.6372 85.015 12.4138 84.7042 12.0932C84.3934 11.7727 84.2379 11.3647 84.2379 10.8694C84.2379 10.4226 84.3594 10.034 84.6022 9.70377C84.845 9.37352 85.185 9.12097 85.6221 8.94613C86.0592 8.76158 86.5643 8.6693 87.1374 8.6693C87.5648 8.6693 87.9679 8.72272 88.3467 8.82957C88.7255 8.93642 89.0752 9.09669 89.3957 9.31038C89.522 9.37837 89.6046 9.47065 89.6434 9.58721C89.6823 9.69406 89.6871 9.8009 89.658 9.90775C89.6385 10.0146 89.59 10.1117 89.5123 10.1991C89.4346 10.2769 89.3374 10.3254 89.2209 10.3448C89.114 10.3546 88.9926 10.3254 88.8566 10.2574C88.5652 10.0729 88.2738 9.94175 87.9824 9.86404C87.7007 9.78633 87.4191 9.74748 87.1374 9.74748C86.6226 9.74748 86.234 9.84461 85.9718 10.0389C85.7192 10.2234 85.5929 10.476 85.5929 10.7965C85.5929 11.0394 85.6707 11.2385 85.8261 11.3939C85.9815 11.5493 86.2243 11.661 86.5546 11.729L87.9387 12.0058C88.5701 12.1321 89.046 12.3458 89.3666 12.6469C89.6968 12.948 89.862 13.356 89.862 13.8708C89.862 14.541 89.5948 15.0704 89.0606 15.4589C88.5264 15.8474 87.8173 16.0417 86.9334 16.0417Z" fill="black"/>
<g opacity="0.8">
<g clip-path="url(#clip0_334_1440)">
<path d="M18.2125 5.46371H16.2273C16.3275 5.18142 16.3912 4.8718 16.3912 4.55308C16.3912 3.04145 15.171 1.82121 13.6594 1.82121C12.7032 1.82121 11.8745 2.31295 11.3828 3.05056L10.9275 3.66067L10.4722 3.04145C9.98045 2.31295 9.15178 1.82121 8.19563 1.82121C6.68399 1.82121 5.46375 3.04145 5.46375 4.55308C5.46375 4.8718 5.5275 5.18142 5.62767 5.46371H3.64251C2.63171 5.46371 1.83036 6.27416 1.83036 7.28496L1.82126 17.3018C1.82126 18.3126 2.63171 19.1231 3.64251 19.1231H18.2125C19.2233 19.1231 20.0337 18.3126 20.0337 17.3018V7.28496C20.0337 6.27416 19.2233 5.46371 18.2125 5.46371ZM13.6594 3.64246C14.1602 3.64246 14.57 4.05224 14.57 4.55308C14.57 5.05393 14.1602 5.46371 13.6594 5.46371C13.1585 5.46371 12.7487 5.05393 12.7487 4.55308C12.7487 4.05224 13.1585 3.64246 13.6594 3.64246ZM8.19563 3.64246C8.69647 3.64246 9.10625 4.05224 9.10625 4.55308C9.10625 5.05393 8.69647 5.46371 8.19563 5.46371C7.69478 5.46371 7.285 5.05393 7.285 4.55308C7.285 4.05224 7.69478 3.64246 8.19563 3.64246ZM18.2125 17.3018H3.64251V15.4806H18.2125V17.3018ZM18.2125 12.7487H3.64251V7.28496H8.26848L6.37438 9.86202L7.84959 10.9275L10.0169 7.97703L10.9275 6.73858L11.8381 7.97703L14.0054 10.9275L15.4806 9.86202L13.5865 7.28496H18.2125V12.7487Z" fill="black"/>
</g>
</g>
<defs>
<clipPath id="clip0_334_1440">
<rect width="21.855" height="21.855" fill="white"/>
</clipPath>
</defs>
</svg>
