<svg width="73" height="20" viewBox="0 0 73 20" fill="none" xmlns="http://www.w3.org/2000/svg">
<path opacity="0.7" d="M34.7348 15.102C34.492 15.102 34.3026 15.034 34.1666 14.898C34.0403 14.762 33.9772 14.5726 33.9772 14.3298V5.39838C33.9772 5.14583 34.0403 4.95642 34.1666 4.83015C34.3026 4.69416 34.492 4.62617 34.7348 4.62617C34.9777 4.62617 35.1622 4.69416 35.2885 4.83015C35.4245 4.95642 35.4925 5.14583 35.4925 5.39838V9.15744H41.2476V5.39838C41.2476 5.14583 41.3108 4.95642 41.437 4.83015C41.573 4.69416 41.7624 4.62617 42.0053 4.62617C42.2481 4.62617 42.4327 4.69416 42.5589 4.83015C42.6852 4.95642 42.7483 5.14583 42.7483 5.39838V14.3298C42.7483 14.5726 42.6852 14.762 42.5589 14.898C42.4327 15.034 42.2481 15.102 42.0053 15.102C41.7624 15.102 41.573 15.034 41.437 14.898C41.3108 14.762 41.2476 14.5726 41.2476 14.3298V10.425H35.4925V14.3298C35.4925 14.5726 35.4294 14.762 35.3031 14.898C35.1768 15.034 34.9874 15.102 34.7348 15.102ZM48.0751 15.1311C47.3564 15.1311 46.7347 14.9806 46.2102 14.6795C45.6954 14.3783 45.2923 13.951 45.0009 13.3973C44.7095 12.8436 44.5638 12.1928 44.5638 11.4449C44.5638 10.8718 44.6463 10.3619 44.8115 9.91508C44.9766 9.46826 45.2097 9.08459 45.5108 8.76405C45.8217 8.43379 46.1908 8.1861 46.6182 8.02098C47.0552 7.84614 47.5409 7.75872 48.0751 7.75872C48.7842 7.75872 49.3962 7.90927 49.911 8.21039C50.4355 8.5115 50.8434 8.93889 51.1348 9.49255C51.4262 10.0365 51.5719 10.6873 51.5719 11.4449C51.5719 12.0083 51.4894 12.5182 51.3243 12.9748C51.1591 13.4313 50.9212 13.8198 50.6103 14.1404C50.3092 14.4609 49.9401 14.7086 49.503 14.8834C49.0756 15.0486 48.5997 15.1311 48.0751 15.1311ZM48.0751 13.9947C48.4734 13.9947 48.8231 13.8975 49.1242 13.7033C49.4253 13.509 49.6584 13.2225 49.8235 12.8436C49.9984 12.4648 50.0858 11.9986 50.0858 11.4449C50.0858 10.6096 49.9013 9.97821 49.5321 9.55083C49.163 9.12344 48.6774 8.90975 48.0751 8.90975C47.6672 8.90975 47.3127 9.00688 47.0115 9.20115C46.7104 9.3857 46.4725 9.66739 46.2976 10.0462C46.1325 10.425 46.0499 10.8913 46.0499 11.4449C46.0499 12.2706 46.2345 12.9019 46.6036 13.339C46.9727 13.7761 47.4632 13.9947 48.0751 13.9947ZM53.9823 15.102C53.7491 15.102 53.5694 15.0389 53.4432 14.9126C53.3169 14.7766 53.2538 14.592 53.2538 14.3589V8.53093C53.2538 8.28809 53.3169 8.10354 53.4432 7.97727C53.5694 7.85099 53.7443 7.78786 53.9677 7.78786C54.2008 7.78786 54.3756 7.85099 54.4922 7.97727C54.6185 8.10354 54.6816 8.28809 54.6816 8.53093V9.72567L54.5213 9.40513C54.7156 8.89032 55.0167 8.48722 55.4247 8.19582C55.8326 7.90442 56.3232 7.75872 56.8962 7.75872C57.4888 7.75872 57.9696 7.89956 58.3387 8.18125C58.7078 8.46293 58.9603 8.89518 59.0963 9.47798H58.8923C59.0769 8.94374 59.3926 8.52607 59.8394 8.22496C60.2862 7.91413 60.8059 7.75872 61.3984 7.75872C61.9423 7.75872 62.3891 7.86556 62.7388 8.07926C63.0885 8.28324 63.3508 8.59892 63.5256 9.02631C63.7004 9.44398 63.7879 9.97336 63.7879 10.6144V14.3589C63.7879 14.592 63.7199 14.7766 63.5839 14.9126C63.4576 15.0389 63.2779 15.102 63.0448 15.102C62.8117 15.102 62.632 15.0389 62.5057 14.9126C62.3794 14.7766 62.3163 14.592 62.3163 14.3589V10.6873C62.3163 10.0851 62.2094 9.6431 61.9957 9.36142C61.7918 9.07973 61.4518 8.93889 60.9758 8.93889C60.4416 8.93889 60.0191 9.12344 59.7083 9.49255C59.3974 9.86165 59.242 10.3716 59.242 11.0224V14.3589C59.242 14.592 59.1789 14.7766 59.0526 14.9126C58.9263 15.0389 58.7466 15.102 58.5135 15.102C58.2804 15.102 58.0958 15.0389 57.9599 14.9126C57.8336 14.7766 57.7704 14.592 57.7704 14.3589V10.6873C57.7704 10.0851 57.6685 9.6431 57.4645 9.36142C57.2605 9.07973 56.9205 8.93889 56.4446 8.93889C55.9103 8.93889 55.4878 9.12344 55.177 9.49255C54.8759 9.86165 54.7253 10.3716 54.7253 11.0224V14.3589C54.7253 14.8543 54.4776 15.102 53.9823 15.102ZM69.1818 15.1311C68.4048 15.1311 67.7345 14.9854 67.1712 14.694C66.6175 14.3929 66.1853 13.9704 65.8744 13.4264C65.5733 12.8728 65.4228 12.2171 65.4228 11.4595C65.4228 10.7213 65.5733 10.0753 65.8744 9.52169C66.1755 8.96803 66.5884 8.53578 67.1129 8.22496C67.6374 7.91413 68.2348 7.75872 68.905 7.75872C69.4004 7.75872 69.8423 7.84128 70.2309 8.00641C70.6194 8.16182 70.9496 8.39494 71.2216 8.70577C71.5033 9.00688 71.7121 9.37599 71.8481 9.81309C71.9938 10.2502 72.0667 10.7407 72.0667 11.2847C72.0667 11.4498 72.0181 11.5761 71.921 11.6635C71.8238 11.7412 71.6781 11.78 71.4839 11.78H66.5884V10.8767H71.0759L70.8282 11.0807C70.8282 10.595 70.7554 10.1822 70.6097 9.84223C70.4737 9.50226 70.2649 9.24486 69.9832 9.07002C69.7112 8.88546 69.3712 8.79319 68.9633 8.79319C68.5067 8.79319 68.1182 8.90003 67.7977 9.11373C67.4868 9.32742 67.2489 9.62368 67.0837 10.0025C66.9186 10.3813 66.836 10.8233 66.836 11.3284V11.4158C66.836 12.2706 67.0352 12.9165 67.4334 13.3536C67.8414 13.781 68.429 13.9947 69.1964 13.9947C69.4878 13.9947 69.7938 13.9558 70.1143 13.8781C70.4445 13.8004 70.7554 13.6693 71.0468 13.4847C71.2119 13.3876 71.3576 13.3439 71.4839 13.3536C71.6199 13.3633 71.7267 13.407 71.8044 13.4847C71.8918 13.5624 71.9453 13.6596 71.9647 13.7761C71.9841 13.8927 71.9647 14.0141 71.9064 14.1404C71.8481 14.2569 71.7461 14.3638 71.6004 14.4609C71.2702 14.6843 70.8865 14.8543 70.4494 14.9709C70.0123 15.0777 69.5898 15.1311 69.1818 15.1311Z" fill="black"/>
<g opacity="0.8">
<path d="M7.28499 16.3912V10.9275H10.9275V16.3912H15.4806V9.10624H18.2125L9.10624 0.910629L0 9.10624H2.73187V16.3912H7.28499Z" fill="black"/>
</g>
</svg>
