<svg width="79" height="22" viewBox="0 0 79 22" fill="none" xmlns="http://www.w3.org/2000/svg">
<path d="M36.5561 16.0126C36.3133 16.0126 36.1239 15.9446 35.9879 15.8086C35.8616 15.6727 35.7985 15.4832 35.7985 15.2404V6.411C35.7985 6.15845 35.8665 5.96904 36.0025 5.84277C36.1385 5.70678 36.3279 5.63879 36.5707 5.63879H40.0529C41.1603 5.63879 42.015 5.91562 42.6173 6.46928C43.2195 7.01323 43.5206 7.78058 43.5206 8.77134C43.5206 9.77181 43.2195 10.5489 42.6173 11.1025C42.015 11.6465 41.1603 11.9185 40.0529 11.9185H37.3138V15.2404C37.3138 15.4832 37.2506 15.6727 37.1244 15.8086C36.9981 15.9446 36.8087 16.0126 36.5561 16.0126ZM37.3138 10.7091H39.8344C40.5629 10.7091 41.1117 10.5489 41.4808 10.2283C41.8596 9.89808 42.049 9.41242 42.049 8.77134C42.049 8.13997 41.8596 7.66402 41.4808 7.34348C41.1117 7.01323 40.5629 6.8481 39.8344 6.8481H37.3138V10.7091ZM45.5871 16.0126C45.3443 16.0126 45.1598 15.9495 45.0335 15.8232C44.9072 15.6872 44.8441 15.5027 44.8441 15.2695V9.44156C44.8441 9.19872 44.9072 9.01417 45.0335 8.8879C45.1598 8.76162 45.3346 8.69849 45.558 8.69849C45.7911 8.69849 45.966 8.76162 46.0825 8.8879C46.2088 9.01417 46.2719 9.19872 46.2719 9.44156V10.5052H46.1262C46.2816 9.92237 46.5682 9.48041 46.9859 9.1793C47.4035 8.87818 47.9378 8.70334 48.5886 8.65478C48.7634 8.64506 48.8994 8.68877 48.9965 8.78591C49.1034 8.88304 49.1616 9.0336 49.1714 9.23758C49.1908 9.44156 49.1471 9.60668 49.0402 9.73296C48.9334 9.84952 48.7683 9.91751 48.5448 9.93694L48.268 9.96608C47.6366 10.0244 47.1558 10.2235 46.8256 10.5634C46.4953 10.9034 46.3302 11.3697 46.3302 11.9622V15.2695C46.3302 15.5027 46.2671 15.6872 46.1408 15.8232C46.0242 15.9495 45.8397 16.0126 45.5871 16.0126ZM53.2686 16.0418C52.5498 16.0418 51.9282 15.8912 51.4036 15.5901C50.8888 15.289 50.4857 14.8616 50.1943 14.3079C49.9029 13.7543 49.7572 13.1035 49.7572 12.3556C49.7572 11.7825 49.8398 11.2725 50.0049 10.8257C50.17 10.3789 50.4032 9.99522 50.7043 9.67468C51.0151 9.34442 51.3842 9.09673 51.8116 8.93161C52.2487 8.75677 52.7344 8.66935 53.2686 8.66935C53.9777 8.66935 54.5896 8.8199 55.1044 9.12102C55.6289 9.42213 56.0369 9.84952 56.3283 10.4032C56.6197 10.9471 56.7654 11.5979 56.7654 12.3556C56.7654 12.9189 56.6828 13.4289 56.5177 13.8854C56.3526 14.3419 56.1146 14.7305 55.8038 15.051C55.5027 15.3715 55.1336 15.6192 54.6965 15.7941C54.2691 15.9592 53.7931 16.0418 53.2686 16.0418ZM53.2686 14.9053C53.6668 14.9053 54.0165 14.8082 54.3176 14.6139C54.6187 14.4196 54.8519 14.1331 55.017 13.7543C55.1918 13.3755 55.2793 12.9092 55.2793 12.3556C55.2793 11.5202 55.0947 10.8888 54.7256 10.4615C54.3565 10.0341 53.8708 9.82038 53.2686 9.82038C52.8606 9.82038 52.5061 9.91751 52.205 10.1118C51.9039 10.2963 51.6659 10.578 51.4911 10.9568C51.3259 11.3357 51.2434 11.8019 51.2434 12.3556C51.2434 13.1812 51.4279 13.8126 51.797 14.2497C52.1661 14.6868 52.6567 14.9053 53.2686 14.9053ZM59.5125 16.0126C59.2794 16.0126 59.0948 15.9495 58.9589 15.8232C58.8326 15.6872 58.7694 15.5027 58.7694 15.2695V9.93694H57.9535C57.769 9.93694 57.6233 9.88837 57.5164 9.79124C57.4096 9.68439 57.3562 9.54355 57.3562 9.36871C57.3562 9.18415 57.4096 9.04331 57.5164 8.94618C57.6233 8.84904 57.769 8.80048 57.9535 8.80048H59.192L58.7694 9.19387V8.66935C58.7694 7.72715 59.0026 7.00837 59.4688 6.51299C59.935 6.01761 60.6198 5.72621 61.5232 5.63879L61.9603 5.60965C62.1351 5.59022 62.276 5.61451 62.3828 5.6825C62.4896 5.74078 62.5625 5.8282 62.6013 5.94476C62.6402 6.05161 62.6451 6.16331 62.6159 6.27987C62.5868 6.39643 62.5334 6.49842 62.4556 6.58584C62.3877 6.66355 62.3002 6.70726 62.1934 6.71697L61.8 6.74611C61.2561 6.78496 60.8578 6.94523 60.6053 7.22692C60.3624 7.50861 60.241 7.92142 60.241 8.46537V9.0336L60.037 8.80048H64.0292C64.272 8.80048 64.4566 8.87333 64.5829 9.01903C64.7091 9.15501 64.7723 9.34442 64.7723 9.58726V15.1967C64.7723 15.4492 64.7091 15.6484 64.5829 15.7941C64.4663 15.9301 64.2818 15.998 64.0292 15.998C63.7961 15.998 63.6164 15.9301 63.4901 15.7941C63.3638 15.6484 63.3007 15.4492 63.3007 15.1967V9.93694H60.241V15.2695C60.241 15.7649 59.9982 16.0126 59.5125 16.0126ZM64.0583 7.21235C63.7767 7.21235 63.5581 7.1395 63.4027 6.9938C63.2473 6.8481 63.1696 6.64412 63.1696 6.38186C63.1696 6.10989 63.2473 5.90591 63.4027 5.76992C63.5581 5.62422 63.7767 5.55137 64.0583 5.55137C64.3497 5.55137 64.5683 5.62422 64.714 5.76992C64.8694 5.90591 64.9471 6.10989 64.9471 6.38186C64.9471 6.64412 64.8694 6.8481 64.714 6.9938C64.5683 7.1395 64.3497 7.21235 64.0583 7.21235ZM69.1146 16.0418C68.3569 16.0418 67.7839 15.8232 67.3953 15.3861C67.0165 14.9393 66.8271 14.2982 66.8271 13.4629V6.27987C66.8271 6.03704 66.8902 5.85248 67.0165 5.72621C67.1428 5.59994 67.3225 5.5368 67.5556 5.5368C67.7887 5.5368 67.9684 5.59994 68.0947 5.72621C68.2307 5.85248 68.2987 6.03704 68.2987 6.27987V13.3755C68.2987 13.8611 68.3958 14.2254 68.5901 14.4682C68.794 14.7013 69.0854 14.8179 69.4643 14.8179C69.5517 14.8179 69.6294 14.8179 69.6974 14.8179C69.7654 14.8082 69.8334 14.7985 69.9014 14.7887C70.0179 14.779 70.1005 14.813 70.1491 14.8907C70.1976 14.9587 70.2219 15.1044 70.2219 15.3278C70.2219 15.5318 70.1782 15.6921 70.0908 15.8086C70.0034 15.9155 69.8625 15.9835 69.6682 16.0126C69.5808 16.0223 69.4886 16.0272 69.3914 16.0272C69.2943 16.0369 69.202 16.0418 69.1146 16.0418ZM74.546 16.0418C73.7689 16.0418 73.0987 15.8961 72.5353 15.6047C71.9817 15.3035 71.5494 14.881 71.2386 14.3371C70.9375 13.7834 70.7869 13.1278 70.7869 12.3701C70.7869 11.6319 70.9375 10.986 71.2386 10.4323C71.5397 9.87866 71.9525 9.44641 72.4771 9.13559C73.0016 8.82476 73.599 8.66935 74.2692 8.66935C74.7646 8.66935 75.2065 8.75191 75.595 8.91704C75.9836 9.07245 76.3138 9.30557 76.5858 9.6164C76.8675 9.91751 77.0763 10.2866 77.2123 10.7237C77.358 11.1608 77.4309 11.6513 77.4309 12.1953C77.4309 12.3604 77.3823 12.4867 77.2852 12.5741C77.188 12.6518 77.0423 12.6907 76.8481 12.6907H71.9525V11.7873H76.4401L76.1924 11.9913C76.1924 11.5056 76.1196 11.0928 75.9739 10.7529C75.8379 10.4129 75.629 10.1555 75.3474 9.98065C75.0754 9.79609 74.7354 9.70382 74.3275 9.70382C73.8709 9.70382 73.4824 9.81066 73.1619 10.0244C72.851 10.238 72.6131 10.5343 72.4479 10.9131C72.2828 11.2919 72.2002 11.7339 72.2002 12.239V12.3264C72.2002 13.1812 72.3994 13.8271 72.7976 14.2642C73.2056 14.6916 73.7932 14.9053 74.5606 14.9053C74.852 14.9053 75.1579 14.8664 75.4785 14.7887C75.8087 14.711 76.1196 14.5799 76.411 14.3954C76.5761 14.2982 76.7218 14.2545 76.8481 14.2642C76.984 14.2739 77.0909 14.3176 77.1686 14.3954C77.256 14.4731 77.3094 14.5702 77.3289 14.6868C77.3483 14.8033 77.3289 14.9247 77.2706 15.051C77.2123 15.1676 77.1103 15.2744 76.9646 15.3715C76.6344 15.5949 76.2507 15.7649 75.8136 15.8815C75.3765 15.9883 74.954 16.0418 74.546 16.0418Z" fill="black"/>
<g clip-path="url(#clip0_317_942)">
<path d="M10.9276 10.9275C12.94 10.9275 14.5701 9.29747 14.5701 7.28499C14.5701 5.27251 12.94 3.64249 10.9276 3.64249C8.91509 3.64249 7.28507 5.27251 7.28507 7.28499C7.28507 9.29747 8.91509 10.9275 10.9276 10.9275ZM10.9276 12.7487C8.4962 12.7487 3.64258 13.969 3.64258 16.3912V18.2125H18.2126V16.3912C18.2126 13.969 13.3589 12.7487 10.9276 12.7487Z" fill="black"/>
</g>
<defs>
<clipPath id="clip0_317_942">
<rect width="21.855" height="21.855" fill="white"/>
</clipPath>
</defs>
</svg>
